<svg width="118" height="91" viewBox="0 0 118 91" fill="none" xmlns="http://www.w3.org/2000/svg">
<path d="M58.7489 4.4975C55.8179 4.4975 53.4414 7.52242 53.4414 11.2539C53.4414 14.3872 55.1222 17.0114 57.3948 17.7757L48.254 45.4468L34.9579 24.0515C35.9872 22.819 36.6348 21.0771 36.6348 19.1364C36.6348 15.4049 34.2591 12.38 31.3281 12.38C28.3969 12.38 26.0207 15.4049 26.0207 19.1364C26.0207 22.8678 28.3969 25.8928 31.3281 25.8928C31.484 25.8928 31.6368 25.8629 31.7885 25.8569L26.9788 51.4635L13.8672 39.6046C14.6392 38.4311 15.1108 36.9266 15.1108 35.2761C15.1108 31.5447 12.7353 28.5194 9.80404 28.5194C6.87308 28.5194 4.49658 31.5447 4.49658 35.2761C4.49658 39.0076 6.87308 42.0322 9.80404 42.0322C10.5973 42.0322 11.3487 41.8074 12.0248 41.4107L19.239 65.9735H98.1292L105.75 43.8156C106.353 44.1184 107.006 44.2848 107.694 44.2848C110.625 44.2848 113.001 41.2598 113.001 37.5284C113.001 33.7966 110.625 30.772 107.694 30.772C104.762 30.772 102.386 33.7966 102.386 37.5284C102.386 38.918 102.715 40.208 103.28 41.2819L92.3247 50.6426L86.6857 26.9245C89.2308 26.4262 91.1821 23.6413 91.1821 20.2621C91.1821 16.5304 88.8056 13.5054 85.8747 13.5054C82.9434 13.5054 80.5672 16.5304 80.5672 20.2621C80.5672 22.3221 81.2954 24.1607 82.4374 25.4001L70.3951 45.1767L60.6557 17.5528C62.6419 16.5757 64.0556 14.1269 64.0556 11.2535C64.0556 7.52205 61.6794 4.4975 58.7482 4.4975H58.7489ZM19.4798 64.2955V76.3864L97.9777 76.1917V64.8317L19.4798 64.2955ZM19.7463 74.4303L18.9433 86.3257H97.963L98.0355 74.8354L19.7463 74.4303Z" fill="#FCCE00" stroke="#F5981B" stroke-width="8.99435"/>
<path d="M58.7496 4.4975C55.8184 4.4975 53.4422 7.52248 53.4422 11.254C53.4422 14.3874 55.1223 17.0116 57.395 17.7758L48.2546 45.4468L34.9587 24.0514C35.9877 22.8191 36.6356 21.077 36.6356 19.1364C36.6356 15.405 34.2595 12.38 31.3284 12.38C28.3972 12.38 26.021 15.405 26.021 19.1364C26.021 22.8679 28.3972 25.8929 31.3284 25.8929C31.4837 25.8929 31.6371 25.8746 31.7891 25.8575L26.9794 51.464L13.8678 39.6049C14.6398 38.4316 15.1117 36.927 15.1117 35.2767C15.1117 31.5452 12.7355 28.5202 9.8044 28.5202C6.87327 28.5202 4.49707 31.5452 4.49707 35.2767C4.49707 39.0082 6.87327 42.0331 9.8044 42.0331C10.5978 42.0331 11.349 41.8087 12.025 41.4114L19.2396 65.9741H98.1298L105.75 43.8163C106.353 44.1192 107.007 44.2855 107.694 44.2855C110.625 44.2855 113.001 41.2605 113.001 37.5291C113.001 33.7976 110.625 30.7726 107.694 30.7726C104.763 30.7726 102.387 33.7976 102.387 37.5291C102.387 38.9189 102.715 40.2087 103.28 41.2827L92.325 50.6434L86.6859 26.9252C89.2309 26.4269 91.1825 23.642 91.1825 20.2626C91.1825 16.5312 88.8063 13.5062 85.8751 13.5062C82.944 13.5062 80.5679 16.5312 80.5679 20.2626C80.5679 22.3226 81.2964 24.1611 82.4384 25.4005L70.3955 45.1774L60.6563 17.5533C62.6426 16.5763 64.0562 14.1276 64.0562 11.2544C64.0562 7.52294 61.68 4.49796 58.7489 4.49796L58.7496 4.4975ZM19.4802 64.2956L18.9448 76.1909H97.9646V64.831L19.4802 64.2956ZM19.0303 74.7565L18.9448 86.3255H97.9646L97.8408 74.8352L19.0303 74.7565Z" fill="#FCCE00"/>
<path d="M58.6302 4.45831C55.699 4.45831 53.3242 7.48433 53.3242 11.2158C53.3242 14.3494 55.005 16.969 57.2775 17.7332L48.1368 45.4072L34.8385 24.0105C35.8675 22.7783 36.5191 21.0379 36.5191 19.0976C36.5191 18.1714 36.3693 17.2897 36.1033 16.4859C33.0911 17.0463 29.7398 19.0018 26.4122 21.9493C27.2585 24.25 29.0805 25.855 31.208 25.855C31.3639 25.855 31.5186 25.8189 31.6706 25.8129L26.8631 51.4203L13.7463 39.5625C14.2425 38.8079 14.5972 37.9063 14.7996 36.9274C13.8531 38.6163 12.9321 40.3262 12.1235 42.1152L13.6109 47.169C21.6809 50.2643 27.7845 60.9198 32.9991 65.2866C38.8922 70.2209 47.2863 73.0874 55.5728 73.3791C63.8593 73.67 75.7901 69.3673 82.3341 65.2866C88.8622 61.2157 95.1632 47.4286 104.738 46.3727L104.774 46.2738C104.188 44.6899 103.518 43.1134 102.8 41.5538L92.2075 50.6008L86.5685 26.8856C88.3482 26.537 89.8214 25.0558 90.5562 23.0498C87.5605 19.8646 84.4958 17.4151 81.6263 16.0288C80.9019 17.1837 80.4493 18.6286 80.4493 20.2215C80.4493 22.2815 81.1811 24.1175 82.3231 25.3569L70.2779 45.1378L60.5399 17.5103C62.5262 16.5335 63.9362 14.0885 63.9362 11.2154C63.9362 7.48397 61.5619 4.45795 58.6309 4.45795L58.6302 4.45831Z" fill="#FEE140"/>
</svg>